<?xml version="1.0" encoding="UTF-8" standalone="no"?>
<svg
   xmlns:dc="http://purl.org/dc/elements/1.1/"
   xmlns:cc="http://creativecommons.org/ns#"
   xmlns:rdf="http://www.w3.org/1999/02/22-rdf-syntax-ns#"
   xmlns:svg="http://www.w3.org/2000/svg"
   xmlns="http://www.w3.org/2000/svg"
   width="210mm"
   height="297mm"
   viewBox="0 0 210 297"
   version="1.1"
   id="svg8">
  <defs
     id="defs2" />
  <metadata
     id="metadata5">
    <rdf:RDF>
      <cc:Work
         rdf:about="">
        <dc:format>image/svg+xml</dc:format>
        <dc:type
           rdf:resource="http://purl.org/dc/dcmitype/StillImage" />
        <dc:title></dc:title>
      </cc:Work>
    </rdf:RDF>
  </metadata>
  <g
     id="layer1">
    <rect
       style="fill:#e30613;fill-opacity:1;fill-rule:nonzero;stroke:none;stroke-width:0.155164;stroke-miterlimit:4;stroke-dasharray:none;stroke-dashoffset:0;stroke-opacity:1"
       id="rect827"
       width="100"
       height="40"
       x="0"
       y="0" />
    <switch
       transform="matrix(0.63436346,0,0,0.66252879,4.841409,4.8341225)"
       id="switch5231">
      <g
         id="g5229">
        <g
           style="fill:#ffed00"
           id="g5227">
          <path
             d="m 125.683,9.205 h 16.372 v 8.624 c 0,1.664 -1.152,3.889 -3.542,4.518 -2.405,0.633 -4.74,0.488 -7.362,0.488 h -10.937 c -3.623,0.051 -6.72,0.307 -8.596,-0.943 -1.409,-0.939 -2.329,-2.415 -2.307,-4.062 V 5.295 c -0.026,-1.739 1.002,-3.003 2.332,-4.051 1.625,-1.278 4.995,-0.958 8.572,-0.958 h 10.934 c 4.316,0 7.163,0.011 8.75,1.097 2.43,1.662 2.221,4.92 2.221,4.92 h -10.989 c -0.347,-1.627 -1.317,-2.052 -3.537,-2.052 h -3.522 c -2.406,-0.024 -3.308,0.762 -3.292,2.126 v 9.989 c 0,1.203 0.181,1.732 1.161,2.188 0.768,0.369 2.074,0.308 3.566,0.308 0.473,0 1.668,0.003 2.785,0.003 2.631,0 2.859,-1.378 2.859,-2.882 v -2.668 h -5.469 V 9.205 Z M 39.467,22.835 V 0.286 h 11.469 l -0.002,16.531 h 14.96 v 6.018 z"
             id="path5223" />
          <path
             style="clip-rule:evenodd;fill-rule:evenodd"
             d="m 21.536,9.511 v 4.073 c -0.001,0.676 0.104,2.37 -1.009,2.821 -1.424,0.578 -2.462,0.392 -3.904,0.414 H 11.71 V 6.277 h 4.92 c 1.442,0.023 2.476,-0.164 3.9,0.415 1.113,0.452 1.005,2.144 1.006,2.819 z m 0.553,13.323 c 2.983,0 6.237,0.234 8.37,-0.753 2.152,-0.989 2.529,-3.602 2.53,-4.962 L 32.993,6.036 C 32.992,4.676 32.615,2.063 30.463,1.075 28.331,0.087 25.074,0.286 22.09,0.286 H 0.25 V 22.835 Z M 82.529,4.273 h 4.957 c 1.57,0 2.774,-0.12 3.844,0.356 1.308,0.582 1.13,1.583 1.13,2.107 0,0.508 0.13,1.592 -1.13,2.123 -1.136,0.478 -1.965,0.346 -3.844,0.346 H 82.529 Z M 71.059,22.835 V 0.287 h 21.666 c 2.505,0.031 5.336,-0.194 7.361,0.713 2.307,1.033 3.56,2.219 3.56,4.689 l -0.018,0.608 c 0,1.929 -0.842,2.932 -2.525,3.969 -1.663,1.038 -3.716,1.185 -7.639,1.185 h 4.696 c 1.492,0 2.771,0.25 3.837,0.749 1.088,0.489 1.631,1.816 1.631,2.501 l 0.001,8.134 H 92.168 l 10e-4,-7.139 c 0,-0.685 0.052,-1.8 -0.959,-2.107 -1.108,-0.337 -1.807,-0.24 -3.582,-0.272 h -5.1 v 9.519 H 71.059 Z"
             id="path5225" />
        </g>
      </g>
    </switch>
    <text
       id="text5840"
       y="33.216446"
       x="4.8652315"
       style="font-style:normal;font-variant:normal;font-weight:normal;font-stretch:normal;font-size:8.96327px;line-height:1.25;font-family:'Liberation Sans';-inkscape-font-specification:'Liberation Sans, Normal';font-variant-ligatures:normal;font-variant-caps:normal;font-variant-numeric:normal;font-feature-settings:normal;text-align:start;letter-spacing:0px;word-spacing:0px;writing-mode:lr-tb;text-anchor:start;fill:#fdeb1e;fill-opacity:1;stroke:none;stroke-width:0.14823"
       xml:space="preserve"><tspan
         id="tspan5838"
         style="font-style:normal;font-variant:normal;font-weight:bold;font-stretch:normal;font-size:8.96327px;font-family:'DLRG Univers 55 Roman';-inkscape-font-specification:'DLRG Univers 55 Roman, Bold';font-variant-ligatures:normal;font-variant-caps:normal;font-variant-numeric:normal;font-feature-settings:normal;text-align:start;writing-mode:lr-tb;text-anchor:start;fill:#fdeb1e;fill-opacity:1;stroke-width:0.14823"
         y="33.216446"
         x="4.8652315">Wachdienst-Manager</tspan></text>
    <rect
       style="fill:#fdeb1e;fill-opacity:1;fill-rule:nonzero;stroke:none;stroke-width:0.225432;stroke-miterlimit:4;stroke-dasharray:none;stroke-dashoffset:0;stroke-opacity:1"
       id="rect5842"
       width="89.999992"
       height="0.90899998"
       x="5"
       y="22.914" />
  </g>
</svg>
